<?xml version="1.0" encoding="UTF-8"?>
<svg id="Capa_1" data-name="Capa 1" xmlns="http://www.w3.org/2000/svg" viewBox="0 0 81.98 32.74">
  <defs>
    <style>
      .cls-1 {
        fill: #fff;
      }

      .cls-2 {
        fill: #f51200;
      }
    </style>
  </defs>
  <path class="cls-1" d="M12.43,19.49v5.65h-2.78v7.61H0V12.43c0-3.93,1.09-6.99,3.27-9.16C5.44,1.09,8.51,0,12.45,0s6.61.99,8.43,2.96c1.82,1.97,2.73,5.02,2.73,9.14v20.64h-9.65V12.73c0-1.25-.15-2.11-.45-2.6-.3-.48-.84-.73-1.62-.73-1.51,0-2.26,1.11-2.26,3.32v3.98h0c1.54,0,2.78,1.24,2.78,2.78Z"/>
  <path class="cls-1" d="M48.39.45v12.6c-1.68,0-2.84.31-3.47.94-.63.63-1.03,1.87-1.2,3.72-.55,6.16-2.94,10.51-7.16,13.05-2.24,1.32-5.41,1.98-9.53,1.98h-1.66v-12.66h.54c1.92,0,3.29-.4,4.11-1.2.82-.8,1.3-2.2,1.42-4.2.17-3.26.47-5.55.91-6.87.44-1.32,1.33-2.63,2.67-3.93,2.34-2.28,5.6-3.42,9.75-3.42h3.61Z"/>
  <g>
    <path class="cls-2" d="M65.67,7.88l1.89,1.3c.08-.36-.21-.64-.28-1.01-.55-2.84,3.59-5.24,6.07-5.03.48.04,1.24.16,1.69.3,1.07.32,1.54.98,2.35,1.6.53-.78,1.19-1.49,1-2.52-.17-.9-1.81-.5-2.49-.57-1.22-.12-2.43-.54-3.57-.98-.56-.21-1.38-.82-2.01-.79-.45.02-1.81,1.64-2.32,2.07-.74.62-3.03,1.81-3.37,2.36-.9,1.46.39,2.08,1.03,3.26Z"/>
    <path class="cls-2" d="M77.46,5.19c.27,1.63.28,3.29-1.03,4.51-.19.18-1.08.72-1.3.73-.15,0-.21-.11-.1-.22.18-.19.86-.36,1.2-.75.27-.31.46-.7.59-1.09.12-.37.37-1.65.39-2.01.04-.77-.75-1.85-1.44-2.16-.48-.21-1.1-.22-1.62-.34-.37-.09-.73-.31-1.09-.39-.6-.12-1.92.19-2.23.8.06.14.92-.35,1.09.08-3.04.91-2.57,5.86.83,5.95l-1.12-.8c-1.23-.81-.65-3.64.85-3.56.46.02.77.25,1.17.34.13.03.21.12.22-.1.03-.51-.62-1.25-1.03-1.53-.25-.17-.82-.16-.6-.49,2.62.55,3.82,4.63,1.39,6.15.16.3.57.05.78.1.58.13.41.36,1.27.19,1.41-.27,3.13-1.79,3.32-3.25.01-.09-.02-1.07-.04-1.12-.05-.2-1.17-1.04-1.49-1.04Z"/>
    <path class="cls-2" d="M78.26,10.57c-.3.7-.27.97-.47,1.63-.31,1.04-1.33,2.82-2.17,3.54-1.45,1.24-3.53.52-5.21,1.06,1.28.67,2.3,1.41,3.79,1.56.88.09,3.86-.35,4.52-.87.84-.67.69-1.69.96-2.61.24-.84,1.16-2.37,1.08-3.06-.11-1.07-1.69-1.08-2.51-1.25Z"/>
    <path class="cls-2" d="M70.01,16.53c.29-.06.88-.3,1.16-.45-2.71-.8-5.62-3.78-6.2-6.55-.05-.23-.08-.31-.1-.48,0-.09-.04-.44-.04-.87,0-.68.17-1.35-.73-1.22-.87.53-1.87.95-1.93,2.14-.02.51,1.35,2.18,1.64,2.88.53,1.27.49,3.11,1.91,3.85,1.14.59,3.02.95,4.28.69Z"/>
    <path class="cls-2" d="M78.23,10.31c.81.12,2.32-.56,2.88-1.16s1.2-1.42.69-2.2c-.23-.35-2.44-2.89-2.7-3.03-.09-.04-.18-.07-.27-.1-.26.12.25,1.87.32,2.22.01.05.13.16.15.34.17,1.57-.48,2.58-1.49,3.71-.03.09.34.2.42.22Z"/>
    <path class="cls-2" d="M77.23,10.32c-1.3,2.36-4.27,3.72-6.85,2.61-1.01-.43-1.89-1.27-2.71-1.97-.58,1.44,1.69,4.33,3,4.53.35.05.68-.19,1.06-.1.45.11.77.47,1.27.58,2.17.51,3.98-2.83,4.32-4.56.03-.15.31-1.26-.08-1.1Z"/>
    <path class="cls-2" d="M74.98,11.37c.24-.31-.53-.46-.75-.52-1.72-.45-2.64.28-4.02-1.41-1.13-1.37-1.13-2.89.04-4.26-.93-.14-2.15.95-2.38,1.79-.15.52.39,3.19.64,3.72.4.82,1.23,1.27,2.11,1.39,1.55.21,2.82-1.48,4.37-.72Z"/>
    <path class="cls-2" d="M71.82,9.11c.37.86,1.75,1.05,2.25.23.79-1.29.03-2.93-1.5-3.01-1.12-.06-1.48,1.84-.37,2.29.57.23.62-.39.74-.72.22-.65.72.09.7.5-.04,1.08-1.04,1.12-1.82.72Z"/>
    <path class="cls-2" d="M71.29,12.64c.89.45,2.3.28,3.17-.15,1.28-.63.33-1.05-.64-.97-.38.03-1.74.62-2.18.81-.16.07-.33.1-.36.31Z"/>
    <path class="cls-2" d="M65.55,8.21s-.21-.12-.25-.02c-.01.04-.04.69-.03.79.13,1.73,1.21,3.34,2.5,4.44-.57-1.28-.7-2.27-.23-3.63l-1.99-1.58Z"/>
  </g>
  <path class="cls-1" d="M70.01,17.76c-1.52-.92-1.59-.1-3.22-.62-1.64-.52-3.3-1.08-3.33-3.66-.01-.95-.57-1.65-1.11-2.25-.48-.53-.74-1.07-.76-1.74-.03-1.04-.46-.46-.82.16-.28.48.03.74-.65.66V.45h-9.98v32.29h9.98v-12.82c0-1.47.56-2.2,1.68-2.2.69,0,1.16.17,1.4.52.24.35.36,1.03.36,2.03v12.47h10.26l-.02-12.78c0-.35.12-.86-.26-.75-.66.18-1.7-.35-3.53-1.45Z"/>
</svg>